# xmcd
#
# Track frame offsets: 
#        183
#        12563
#        23045
#        35698
#        47878
#        64180
#        75460
#        88758
#        101038
#        110593
#        126448
#        139355
#        149865
#        162183
#        174663
#        188120
#
# Disc length: 2668 seconds
#
# Revision: 0
# Processed by: cddbd v1.5.1PL0 Copyright (c) Steve Scherf et al.
# Submitted via: ExactAudioCopy v0.95a5
#
DISCID=ee0a6a10
DTITLE=Various Artist - Ads heard on TV
DYEAR=1900
DGENRE=
TTITLE0=No particular place to go
TTITLE1=But I do
TTITLE2=Mad about the boy
TTITLE3=Will you still love me tomorrow?
TTITLE4=My baby just cares for me
TTITLE5=This is hip
TTITLE6=Mannish boy
TTITLE7=Only you
TTITLE8=Wonderful world
TTITLE9=No pity (in the naked city)
TTITLE10=When a man loves a woman
TTITLE11=I wonder who's kissing her now
TTITLE12=Get a job
TTITLE13=The walk
TTITLE14=24 hours from Tulsa
TTITLE15=Goodnight, sweetheart, Goodnight
EXTD=
EXTT0=
EXTT1=
EXTT2=
EXTT3=
EXTT4=
EXTT5=
EXTT6=
EXTT7=
EXTT8=
EXTT9=
EXTT10=
EXTT11=
EXTT12=
EXTT13=
EXTT14=
EXTT15=
PLAYORDER=
